<?xml version="1.0" encoding="UTF-8" standalone="no"?><!DOCTYPE svg PUBLIC "-//W3C//DTD SVG 1.1//EN" "http://www.w3.org/Graphics/SVG/1.1/DTD/svg11.dtd"><svg width="100%" height="100%" viewBox="0 0 8684 8684" version="1.1" xmlns="http://www.w3.org/2000/svg" xmlns:xlink="http://www.w3.org/1999/xlink" xml:space="preserve" xmlns:serif="http://www.serif.com/" style="fill-rule:evenodd;clip-rule:evenodd;stroke-linejoin:round;stroke-miterlimit:2;"><g id="OBJECTS"><path d="M3878.15,3141.504c-13.675,0 -27.292,-5.433 -37.4,-16.179c-19.354,-20.667 -18.329,-53.104 2.317,-72.458c278.458,-261.192 642.187,-399.529 1025.417,-389.442c59.5,-1.538 119.413,0.513 178.154,6.15c28.192,2.687 48.837,27.742 46.133,55.912c-2.708,28.171 -27.946,48.737 -55.892,46.133c-55.071,-5.292 -111.15,-7.196 -167.021,-5.679c-0.921,0.021 -1.846,0.021 -2.767,0c-357.192,-9.7 -694.942,118.796 -953.879,361.679c-9.883,9.288 -22.492,13.879 -35.062,13.879" style="fill:url(#_Linear1);fill-rule:nonzero;"/><path d="M4291.512,3649.408c-15.296,0 -30.425,-6.808 -40.533,-19.825c-72.892,-93.904 -161.854,-171.779 -264.412,-231.421c-24.462,-14.229 -32.783,-45.621 -18.533,-70.079c14.229,-24.479 45.579,-32.783 70.079,-18.533c113.979,66.288 212.846,152.812 293.854,257.175c17.346,22.371 13.308,54.558 -9.062,71.925c-9.35,7.258 -20.421,10.762 -31.392,10.762" style="fill:url(#_Linear2);fill-rule:nonzero;"/><path d="M7006.521,4032.429c-2.625,-30.325 -7.996,-60.2 -15.971,-89.333c27.946,-26.267 45.621,-63.296 45.621,-104.671c0,-79.512 -64.462,-143.996 -143.996,-143.996c-79.533,0 -143.996,64.483 -143.996,143.996c0,76.846 60.342,139.054 136.142,143.217c7.608,30.612 11.729,62.146 11.708,94.071l-0.267,5.454c-0.758,29.463 21.404,54.479 50.746,57.308l17.367,1.742c308.946,32.867 435.183,274.375 423.254,499.133c-11.708,220.412 -166.775,457.637 -479.575,457.637l-279.258,0c-31,0 -56.158,25.137 -56.158,56.158c0,31.021 25.158,56.179 56.158,56.179l279.258,0c385.996,0 577.317,-292.379 591.75,-564.008c13.858,-261.337 -134.975,-559.496 -492.779,-612.887" style="fill:url(#_Linear3);fill-rule:nonzero;"/><path d="M2718.321,3796.6c79.533,0 143.996,-64.463 143.996,-143.996c0,-25.2 -7.033,-48.513 -18.392,-69.096c171.963,-190.804 417.121,-301.912 677.821,-301.912c78.096,0 155.662,9.863 230.542,29.363c29.912,7.812 60.692,-10.192 68.5,-40.229c7.812,-30.017 -10.192,-60.671 -40.229,-68.483c-84.104,-21.896 -171.183,-32.992 -258.817,-32.992c-295.412,0 -573.175,126.917 -766.5,344.725c-11.85,-3.158 -24.071,-5.371 -36.925,-5.371c-79.533,0 -143.996,64.463 -143.996,143.996c0,79.533 64.462,143.996 143.996,143.996" style="fill:url(#_Linear4);fill-rule:nonzero;"/><path d="M6186.625,5240.992c-48.429,0 -87.837,-39.408 -87.837,-87.837c0,-48.429 39.408,-87.837 87.837,-87.837c48.429,0 87.817,39.408 87.817,87.837c0,48.429 -39.387,87.837 -87.817,87.837m0,-288.012c-90.871,0 -167.658,60.896 -192.012,143.996l-937.767,0c-31,0 -56.158,25.158 -56.158,56.179c0,31.021 25.158,56.158 56.158,56.158l937.767,0c24.358,83.1 101.142,144.017 192.012,144.017c110.35,0 200.154,-89.783 200.154,-200.175c0,-110.392 -89.804,-200.175 -200.154,-200.175" style="fill:url(#_Linear5);fill-rule:nonzero;"/><path d="M4470.125,4581.475c50.929,-123.617 76.683,-253.504 76.683,-387.167c0,-146.642 -30.304,-288.217 -90.092,-420.792c-12.775,-28.296 -46.05,-40.821 -74.283,-28.108c-28.296,12.733 -40.863,45.988 -28.129,74.283c53.208,117.975 80.167,244.012 80.167,374.617c0,140.304 -31.946,276.058 -94.971,403.508c-8.1,16.342 -7.75,35.575 0.921,51.608c8.675,16.033 24.562,26.858 42.667,29.054c195.15,23.621 342.304,189.717 342.304,386.387c0,214.812 -174.75,389.604 -389.567,389.604l-1841.517,0c-21.896,-51.629 -73.033,-87.858 -132.637,-87.858c-79.533,0 -143.996,64.483 -143.996,144.017c0,79.513 64.462,143.996 143.996,143.996c59.604,0 110.717,-36.208 132.617,-87.837l1841.533,0c276.733,0 501.904,-225.15 501.904,-501.925c0,-228.058 -153.571,-424.238 -367.604,-483.387" style="fill:url(#_Linear6);fill-rule:nonzero;"/><path d="M2574.321,4100.621c48.429,0 87.838,39.408 87.838,87.838c0,48.429 -39.408,87.837 -87.838,87.837c-48.429,0 -87.838,-39.408 -87.838,-87.838c0,-48.429 39.408,-87.837 87.838,-87.837m-679.608,1353.842c-331.95,0 -602,-270.05 -602,-602c0,-331.929 270.05,-601.979 602,-601.979c133.846,0 260.925,43.592 367.525,126.054c12.321,9.533 28.05,13.45 43.488,10.992c15.4,-2.542 29.033,-11.358 37.667,-24.358c17.142,-25.771 38.938,-47.404 63.621,-65.137c35.8,54.5 97.371,90.604 167.308,90.604c110.371,0 200.154,-89.804 200.154,-200.175c0,-110.371 -89.783,-200.175 -200.154,-200.175c-109.262,0 -198.208,88.042 -199.992,196.875c-33.029,18.658 -62.946,42.217 -88.658,70.121c-116.521,-76.804 -250.571,-117.138 -390.958,-117.138c-393.892,0 -714.337,320.45 -714.337,714.317c0,393.871 320.45,714.338 714.338,714.338c31,0 56.158,-25.158 56.158,-56.158c0,-31.021 -25.158,-56.179 -56.158,-56.179" style="fill:url(#_Linear7);fill-rule:nonzero;"/><path d="M5357.896,2895.021c-48.429,0 -87.837,-39.388 -87.837,-87.838c0,-48.429 39.408,-87.817 87.837,-87.817c48.429,0 87.817,39.388 87.817,87.817c0,48.45 -39.387,87.838 -87.817,87.838m1147.496,677.967c-83.675,0 -164.396,20.483 -237.121,59.725c-123.267,-349.458 -378.392,-637.471 -711.529,-803.283c0.8,-7.321 1.312,-14.721 1.312,-22.246c0,-110.371 -89.804,-200.154 -200.154,-200.154c-110.392,0 -200.175,89.783 -200.175,200.154c0,110.371 89.783,200.175 200.175,200.175c62.617,0 118.55,-28.95 155.292,-74.121c324.179,163.554 567.208,453.042 670.196,801.829c5.208,17.654 18.762,31.637 36.229,37.417c5.762,1.908 11.708,2.829 17.633,2.829c12.017,0 23.929,-3.854 33.771,-11.275c68.442,-51.483 149.492,-78.713 234.375,-78.713c31,0 56.158,-25.158 56.158,-56.158c0,-31.021 -25.158,-56.179 -56.158,-56.179" style="fill:url(#_Linear8);fill-rule:nonzero;"/></g><defs><linearGradient id="_Linear1" x1="0" y1="0" x2="1" y2="0" gradientUnits="userSpaceOnUse" gradientTransform="matrix(1266.127883,0,0,1266.127883,3826.882125,2902.207738)"><stop offset="0" style="stop-color:#fac52d;stop-opacity:1"/><stop offset="0.32" style="stop-color:#fffa84;stop-opacity:1"/><stop offset="0.69" style="stop-color:#eeae00;stop-opacity:1"/><stop offset="1" style="stop-color:#ffff90;stop-opacity:1"/></linearGradient><linearGradient id="_Linear2" x1="0" y1="0" x2="1" y2="0" gradientUnits="userSpaceOnUse" gradientTransform="matrix(381.664979,0,0,381.664979,3961.065929,3475.990508)"><stop offset="0" style="stop-color:#fac52d;stop-opacity:1"/><stop offset="0.32" style="stop-color:#fffa84;stop-opacity:1"/><stop offset="0.45" style="stop-color:#fae25a;stop-opacity:1"/><stop offset="0.63" style="stop-color:#eeae00;stop-opacity:1"/><stop offset="1" style="stop-color:#ffff90;stop-opacity:1"/></linearGradient><linearGradient id="_Linear3" x1="0" y1="0" x2="1" y2="0" gradientUnits="userSpaceOnUse" gradientTransform="matrix(928.046767,0,0,928.046767,6572.134467,4451.8761)"><stop offset="0" style="stop-color:#fac52d;stop-opacity:1"/><stop offset="0.33" style="stop-color:#fffa84;stop-opacity:1"/><stop offset="0.71" style="stop-color:#eeae00;stop-opacity:1"/><stop offset="1" style="stop-color:#ffff90;stop-opacity:1"/></linearGradient><linearGradient id="_Linear4" x1="0" y1="0" x2="1" y2="0" gradientUnits="userSpaceOnUse" gradientTransform="matrix(1248.288396,0,0,1248.288396,2574.324038,3482.927458)"><stop offset="0" style="stop-color:#fac52d;stop-opacity:1"/><stop offset="0.29" style="stop-color:#fffa84;stop-opacity:1"/><stop offset="0.68" style="stop-color:#eeae00;stop-opacity:1"/><stop offset="1" style="stop-color:#ffff90;stop-opacity:1"/></linearGradient><linearGradient id="_Linear5" x1="0" y1="0" x2="1" y2="0" gradientUnits="userSpaceOnUse" gradientTransform="matrix(1386.092804,0,0,1386.092804,5000.686633,5153.154625)"><stop offset="0" style="stop-color:#fac52d;stop-opacity:1"/><stop offset="0.27" style="stop-color:#fffa84;stop-opacity:1"/><stop offset="0.7" style="stop-color:#eeae00;stop-opacity:1"/><stop offset="1" style="stop-color:#ffff90;stop-opacity:1"/></linearGradient><linearGradient id="_Linear6" x1="0" y1="0" x2="1" y2="0" gradientUnits="userSpaceOnUse" gradientTransform="matrix(2620.050217,0,0,2620.050217,2217.679321,4697.534188)"><stop offset="0" style="stop-color:#fac52d;stop-opacity:1"/><stop offset="0.29" style="stop-color:#fffa84;stop-opacity:1"/><stop offset="0.67" style="stop-color:#eeae00;stop-opacity:1"/><stop offset="1" style="stop-color:#ffff90;stop-opacity:1"/></linearGradient><linearGradient id="_Linear7" x1="0" y1="0" x2="1" y2="0" gradientUnits="userSpaceOnUse" gradientTransform="matrix(1594.100013,0,0,1594.100013,1180.374321,4777.540146)"><stop offset="0" style="stop-color:#fac52d;stop-opacity:1"/><stop offset="0.31" style="stop-color:#fffa84;stop-opacity:1"/><stop offset="0.69" style="stop-color:#eeae00;stop-opacity:1"/><stop offset="1" style="stop-color:#ffff90;stop-opacity:1"/></linearGradient><linearGradient id="_Linear8" x1="0" y1="0" x2="1" y2="0" gradientUnits="userSpaceOnUse" gradientTransform="matrix(1403.828263,0,0,1403.828263,5157.722338,3191.171971)"><stop offset="0" style="stop-color:#fac52d;stop-opacity:1"/><stop offset="0.28" style="stop-color:#fffa84;stop-opacity:1"/><stop offset="0.68" style="stop-color:#eeae00;stop-opacity:1"/><stop offset="1" style="stop-color:#ffff90;stop-opacity:1"/></linearGradient></defs></svg>